PathFileType	4	(X/Y/Z)	OpenSim_Sub04_CSBaseline_Gyro.trc
DataRate	CameraRate	NumFrames	NumMarkers	Units	OrigDataRate	OrigDataStartFrame	OrigNumFrames
100	100	37	8	m	100	5052	8083
Frame#	Time	torso_imu_offset_imu	pelvis_imu_offset_imu	tibia_r_imu_offset_imu	femur_r_imu_offset_imu	tibia_l_imu_offset_imu	femur_l_imu_offset_imu	toes_r_imu_offset_imu	toes_l_imu_offset_imu
				X1	Y1	Z1	X2	Y2	Z2	X3	Y3	Z3	X4	Y4	Z4	X5	Y5	Z5	X6	Y6	Z6	X7	Y7	Z7	X8		Y8	Z8	

5052	50.51000000	0.20644260	-0.03187645	-0.07379233	-0.34326534	0.11850667	-0.02352424	-0.06584193	-0.10927549	-0.92475957	0.24774430	-0.17550161	-0.67495415	-0.12770756	0.53866410	-3.09064565	-0.07181616	-0.39668115	0.37152505	0.04725853	-0.48106256	-0.30238554	-0.73750089	2.86505273	-1.23982434
5053	50.52000000	0.23706086	-0.04493574	-0.08860505	-0.33442993	0.12687729	-0.02297783	-0.06041258	-0.10631694	-0.95204177	0.21160405	-0.20195282	-0.65109647	-0.43027135	0.45848426	-2.64514247	-0.14943478	-0.35154234	0.31579982	-0.07453867	-0.58513301	-0.27726908	-0.53351063	2.48288213	-1.15792144
5054	50.53000000	0.25711189	-0.04796936	-0.11346216	-0.31634547	0.10471173	-0.00810506	-0.05706682	-0.09695070	-0.98231179	0.13121017	-0.19585241	-0.60819903	-0.62994368	0.36031849	-2.17157049	-0.19864693	-0.31233592	0.22229672	-0.05843112	-0.66801278	-0.28116963	-0.34801301	1.98706569	-1.04424133
5055	50.54000000	0.26945882	-0.04849476	-0.13882111	-0.30862892	0.05252015	0.00012598	-0.01759038	-0.09817626	-1.03196413	0.05656901	-0.13858731	-0.55915800	-0.67282979	0.27828008	-1.64917645	-0.20577966	-0.27169561	0.10072356	-0.05582897	-0.75753023	-0.28467332	-0.32182053	1.47250850	-0.91368802
5056	50.55000000	0.26481045	-0.04265441	-0.17113691	-0.30054738	0.00344005	0.01737050	-0.00466690	-0.09728869	-1.10595414	-0.00503353	-0.04436932	-0.48677229	-0.73921301	0.22573695	-1.03483874	-0.17253844	-0.18364121	-0.02615476	-0.11627455	-0.86340156	-0.28085753	-0.36037941	0.92325886	-0.80683678
5057	50.56000000	0.26640957	-0.04262672	-0.21006494	-0.29825246	-0.03877548	0.03147864	-0.00101195	-0.07866390	-1.17176662	-0.06330680	0.06111688	-0.41334555	-0.90400450	0.11618061	-0.40999619	-0.13288447	-0.06970221	-0.13697119	-0.09785196	-0.96959603	-0.29502322	-0.41098368	0.31766819	-0.70485578
5058	50.57000000	0.26774333	-0.04512749	-0.24188015	-0.30980666	-0.07517588	0.03257952	0.04004222	-0.06383142	-1.22594524	-0.13849817	0.15876334	-0.35511568	-0.96518781	-0.04587909	0.17315115	-0.10457681	0.07729668	-0.20748958	-0.11995310	-1.07051231	-0.29585527	-0.49616891	-0.27161330	-0.58781865
5059	50.58000000	0.26908832	-0.05086355	-0.27149462	-0.32856403	-0.10694119	0.01827031	0.05415270	-0.05347333	-1.27120163	-0.21539933	0.20746694	-0.31093400	-0.98657049	-0.20751278	0.69238720	-0.11057844	0.19794128	-0.26764515	-0.13941295	-1.19399223	-0.30663152	-0.51899329	-0.76526154	-0.51013434
5060	50.59000000	0.27126581	-0.07049794	-0.30345891	-0.35990521	-0.11554892	-0.00344993	0.03876335	-0.04687625	-1.32461436	-0.25852695	0.23505106	-0.28887894	-1.09732928	-0.34129898	1.13280286	-0.15265007	0.21747509	-0.32190202	-0.15226916	-1.30352653	-0.32782693	-0.40051329	-1.29446815	-0.40457761
5061	50.60000000	0.26540984	-0.08853364	-0.32727364	-0.40003529	-0.11285202	-0.02853418	-0.00262198	-0.04001935	-1.37063189	-0.29119039	0.26570279	-0.29785068	-1.29625085	-0.48301357	1.49319444	-0.18000878	0.14818442	-0.34843170	-0.17725157	-1.42148614	-0.34017678	0.19629913	-2.02382187	-0.39458024
5062	50.61000000	0.29542739	-0.11585031	-0.35924840	-0.43751617	-0.10428180	-0.05500987	-0.05522691	-0.02679808	-1.41147761	-0.30595257	0.28393016	-0.32444014	-1.47211316	-0.61645290	1.76976211	-0.18537989	0.00579774	-0.36446498	-0.18972184	-1.53505446	-0.35570150	0.50434269	-2.37393667	-0.44521272
5063	50.62000000	0.32757678	-0.14610645	-0.39307935	-0.47069330	-0.09443896	-0.08883025	-0.11275312	-0.03254953	-1.45842298	-0.30313747	0.29288699	-0.34748526	-1.50768392	-0.65412299	2.00365212	-0.19754180	-0.13593612	-0.34288253	-0.21254310	-1.68195920	-0.37341468	0.13942928	-2.06224158	-0.39608922
5064	50.63000000	0.36687005	-0.17348451	-0.41817339	-0.46824180	-0.06174181	-0.09671092	-0.17432728	-0.03982234	-1.53074322	-0.28915672	0.30282005	-0.34536153	-1.57864562	-0.69334679	1.89045197	-0.24765753	-0.25637756	-0.27693682	-0.22045451	-1.84718955	-0.40557515	-0.18891962	-1.49530310	-0.22660744
5065	50.64000000	0.40521044	-0.20059123	-0.44326302	-0.48992572	-0.04085404	-0.10160302	-0.19519649	-0.05855440	-1.63165531	-0.29325493	0.30525720	-0.29840479	-1.31299622	-0.77216884	1.34547173	-0.34022394	-0.40586989	-0.17659175	-0.24324432	-2.07735708	-0.43834805	-0.06375562	-1.46959927	0.10015628
5066	50.65000000	0.42008579	-0.22496146	-0.45016858	-0.54274244	-0.06628559	-0.11283457	-0.19312841	-0.08000729	-1.72722238	-0.35317677	0.29333799	-0.18959139	-0.71133094	-0.75556533	0.84868076	-0.46401325	-0.59840477	-0.02728342	-0.21636002	-2.32235412	-0.51289294	0.43424591	-1.70931606	0.39629118
5067	50.66000000	0.43017188	-0.24204258	-0.45009251	-0.58857077	-0.12344309	-0.13863283	-0.20914401	-0.11085357	-1.82749667	-0.45264659	0.30306680	-0.01556631	-0.38181907	-0.63030709	0.78108633	-0.59908889	-0.74812604	0.17898631	-0.15065275	-2.61664354	-0.60032560	0.82795194	-1.73390904	0.52840734
5068	50.67000000	0.46830561	-0.26053130	-0.45772926	-0.60202972	-0.18637512	-0.14198752	-0.22072681	-0.15912730	-1.94935253	-0.56279009	0.39499189	0.17204532	-0.35837692	-0.50639883	0.99619458	-0.74413742	-0.84638808	0.41693395	-0.17442931	-2.97570329	-0.68115559	0.67668920	-1.60152426	0.54982516
5069	50.68000000	0.46687109	-0.26356637	-0.45351232	-0.56811192	-0.25316914	-0.13981332	-0.21209704	-0.21397325	-2.09489996	-0.68150763	0.55973102	0.37595523	-0.48692804	-0.54374211	1.11860301	-0.77388359	-0.87504306	0.60313437	-0.06084307	-3.34812801	-0.79809875	0.29418881	-1.74938915	0.29879494
5070	50.69000000	0.48857405	-0.24356595	-0.47106824	-0.46684703	-0.28726820	-0.14082478	-0.22276103	-0.24528055	-2.23608557	-0.71771228	0.70464478	0.61986375	-0.65221494	-0.63838888	1.16166161	-0.65024663	-0.85014539	0.58662643	0.11613817	-3.74322047	-0.92030985	-1.36216001	-1.20731845	0.14574503
5071	50.70000000	0.48588786	-0.19151303	-0.47210192	-0.32042832	-0.29367205	-0.15976495	-0.21468260	-0.19001561	-2.32144816	-0.65174157	0.78714873	0.87356799	-0.93459083	-0.71898623	1.26052855	-0.48193932	-0.71044025	0.40985585	0.29890161	-4.20112959	-1.06436853	-1.74579237	-0.68750569	0.30345255
5072	50.71000000	0.44467283	-0.13177603	-0.46098323	-0.16084951	-0.29406780	-0.17510272	-0.08117494	-0.14166508	-2.35351152	-0.47985009	0.79134917	1.10830442	-0.89576043	-0.75879818	1.33720116	-0.43486670	-0.51662274	0.17148586	0.27672372	-4.64671596	-1.19697458	-1.01874240	-0.35414726	0.41082693
5073	50.72000000	0.40693536	-0.07815211	-0.43038266	-0.01819614	-0.29492155	-0.18515671	0.06041554	-0.12830827	-2.34745047	-0.25486947	0.73971311	1.29475694	-0.39159761	-0.81513103	1.34267597	-0.52958735	-0.44954210	0.01394334	0.36891258	-5.17152706	-1.39160266	-0.62783178	-0.35959798	0.14397819
5074	50.73000000	0.37982805	-0.03029284	-0.38461238	0.08881320	-0.29790434	-0.16741747	0.20849305	-0.13596760	-2.35949320	0.00789815	0.71034841	1.42233852	0.07456107	-0.82103691	1.33573728	-0.66313640	-0.42093358	0.06121790	0.67693750	-5.49057424	-1.57058240	-0.60546207	-0.29567745	-0.04952589
5075	50.74000000	0.39161998	0.00443478	-0.33909869	0.17048991	-0.27692529	-0.15469416	0.33788649	-0.18327833	-2.36379393	0.26878148	0.71483108	1.48547417	0.09528899	-0.73145613	1.28518765	-0.72985611	-0.46110294	0.21286512	0.75883670	-5.72253735	-1.67871831	-0.33453701	-0.31522268	-0.09830606
5076	50.75000000	0.41512853	0.03409693	-0.31323203	0.20607482	-0.24268292	-0.15410265	0.40995575	-0.24131427	-2.32724525	0.42670914	0.66054836	1.51504902	-0.12682412	-0.63461423	1.12580078	-0.57288938	-0.57752205	0.40966519	1.01384554	-5.41017973	-1.76315392	-0.21514123	-0.29062801	-0.08043428
5077	50.76000000	0.43249593	0.05144706	-0.28491541	0.21231517	-0.20121664	-0.13558051	0.44893766	-0.26729217	-2.26503805	0.44827753	0.52743213	1.57042380	-0.42979162	-0.54732976	0.97214286	-0.12047627	-0.69116150	0.65289323	0.54854024	-5.23929613	-1.65108007	-0.28436138	-0.28187008	0.00276377
5078	50.77000000	0.48413007	0.06286289	-0.26741730	0.19960952	-0.15833591	-0.09519414	0.43003825	-0.29147599	-2.15798095	0.38649914	0.39731277	1.67493452	-0.58630829	-0.52363195	0.87378608	0.41903751	-0.76350888	0.82643524	0.51523440	-5.26480371	-1.63051099	-0.28714144	-0.24230983	0.08837851
5079	50.78000000	0.54756637	0.07665927	-0.25142754	0.19739175	-0.11303336	-0.03953176	0.29304817	-0.32127202	-2.02085296	0.36737202	0.33897090	1.81518076	-0.52167932	-0.51586906	0.81319646	0.89265471	-0.79851865	0.91128379	0.61347522	-5.11397511	-1.73826721	-0.26327833	-0.19283319	0.11600988
5080	50.79000000	0.60590578	0.08064873	-0.24785820	0.18348694	-0.06595059	0.01713197	0.26805748	-0.39225564	-1.90982617	0.42141906	0.33385358	1.92990327	-0.22276121	-0.53321849	0.75742044	1.13239488	-0.79587273	0.81443788	0.60048734	-4.68741955	-1.81504882	-0.22245011	-0.12445920	0.09220266
5081	50.80000000	0.66916188	0.07191431	-0.26390169	0.15386934	-0.02607426	0.06966295	0.39033796	-0.40193604	-1.78558596	0.55383774	0.36357001	1.96971967	0.01185228	-0.52252793	0.70936117	1.09273064	-0.79862487	0.58654932	0.53426980	-4.28933692	-1.97596088	-0.14494981	-0.10712127	0.07890947
5082	50.81000000	0.70968271	0.06961571	-0.28405918	0.11151571	0.00856295	0.11141543	0.38403249	-0.34620429	-1.62687227	0.71393016	0.40163885	1.93726235	0.05454739	-0.50754209	0.67227623	0.89377407	-0.71275906	0.42199331	0.73702764	-4.03416745	-2.34469288	-0.14172323	-0.12119905	0.10012763
5083	50.82000000	0.72125925	0.09675336	-0.30107156	0.04926832	0.03957782	0.13667203	0.28606550	-0.36418935	-1.45574127	0.87888572	0.43141387	1.84296196	0.05801433	-0.45809876	0.60551809	0.64873690	-0.58124848	0.36065838	1.33891330	-3.33300172	-2.35088089	-0.13535989	-0.13697929	0.09649814
5084	50.83000000	0.72132787	0.13375084	-0.31362112	-0.01510474	0.05232747	0.16032568	0.27235485	-0.32663314	-1.26560160	0.99749126	0.42897336	1.82227182	0.17709516	-0.44368532	0.57330672	0.46471798	-0.50876534	0.34318435	-0.27526055	-1.01596512	-0.83591138	-0.08971620	-0.15089181	0.10082136
5085	50.84000000	0.72877603	0.17038010	-0.32073268	-0.05591806	0.04976996	0.16377370	0.11905799	-0.12648949	-1.03794986	1.04166908	0.40507476	1.75359739	0.35122610	-0.41979132	0.57058429	0.37377983	-0.48011833	0.38168639	-1.07647435	1.83898406	0.20188019	-0.08492492	-0.14164343	0.10993272
5086	50.85000000	0.70488764	0.18660667	-0.31334834	-0.05203159	0.04206396	0.16750093	-0.37932787	-0.19481859	-0.72833623	0.96765301	0.34736246	1.67401866	0.34492380	-0.36088997	0.56684952	0.33814042	-0.43580386	0.49585628	-0.85620272	2.18971261	0.28498674	-0.05831437	-0.16413221	0.10082927
5087	50.86000000	0.67311608	0.22317000	-0.30091410	-0.04725442	0.02166687	0.18884014	-0.95337110	-0.51949986	-0.21397621	0.81014675	0.33459628	1.64145184	0.19648701	-0.34353712	0.55591804	0.31022463	-0.37789103	0.65583755	-0.02941942	1.98944558	0.03423097	-0.00860577	-0.16663630	0.08457390
5088	50.87000000	0.66640157	0.27525547	-0.29907444	-0.04260383	-0.01708273	0.21725983	-1.37566591	-0.51916834	0.46257410	0.68913883	0.42208524	1.63500709	0.03332940	-0.31643916	0.55588885	0.30578312	-0.36187781	0.79670447	0.15429328	2.38571233	0.11485199	0.00564999	-0.17725340	0.09358995
